<?xml version="1.0" encoding="iso-8859-1"?>
<!-- Generator: Adobe Illustrator 22.0.1, SVG Export Plug-In . SVG Version: 6.00 Build 0)  -->
<svg version="1.1" id="Layer_1" xmlns="http://www.w3.org/2000/svg" xmlns:xlink="http://www.w3.org/1999/xlink" x="0px" y="0px"
	 width="43px" height="43px" viewBox="0 0 43 43" style="enable-background:new 0 0 43 43;" xml:space="preserve">
<g>
	<g>
		<circle style="fill:#D7DF23;" cx="21.5" cy="21.5" r="20"/>
		<path d="M21.5,43C9.6,43,0,33.4,0,21.5S9.6,0,21.5,0S43,9.6,43,21.5S33.4,43,21.5,43z M21.5,3C11.3,3,3,11.3,3,21.5
			S11.3,40,21.5,40S40,31.7,40,21.5S31.7,3,21.5,3z"/>
	</g>
	<g>
		<rect x="20" y="0.8" width="3" height="41.2"/>
	</g>
	<g>
		<rect x="0.9" y="19.9" width="41.2" height="3"/>
	</g>
	<g>
		<path d="M13.3,17.6c-2.2,0-4-1.8-4-4s1.8-4,4-4s4,1.8,4,4S15.5,17.6,13.3,17.6z M13.3,12.6c-0.6,0-1,0.4-1,1s0.4,1,1,1s1-0.4,1-1
			S13.9,12.6,13.3,12.6z"/>
	</g>
	<g>
		<path d="M29.6,17.6c-2.2,0-4-1.8-4-4s1.8-4,4-4s4,1.8,4,4S31.8,17.6,29.6,17.6z M29.6,12.6c-0.6,0-1,0.4-1,1s0.4,1,1,1s1-0.4,1-1
			S30.1,12.6,29.6,12.6z"/>
	</g>
	<g>
		<path d="M13.3,33.2c-2.2,0-4-1.8-4-4s1.8-4,4-4s4,1.8,4,4S15.5,33.2,13.3,33.2z M13.3,28.2c-0.6,0-1,0.4-1,1s0.4,1,1,1s1-0.4,1-1
			S13.9,28.2,13.3,28.2z"/>
	</g>
	<g>
		<path d="M29.6,33.2c-2.2,0-4-1.8-4-4s1.8-4,4-4s4,1.8,4,4S31.8,33.2,29.6,33.2z M29.6,28.2c-0.6,0-1,0.4-1,1s0.4,1,1,1s1-0.4,1-1
			S30.1,28.2,29.6,28.2z"/>
	</g>
	<g>
		<path d="M40.5,28.8c-0.1,0-0.2,0-0.4,0c-3.4-0.9-5.8-4-5.8-7.5c0-3.6,2.5-6.7,6-7.5c0.8-0.2,1.5,0.3,1.7,1c0.2,0.7-0.3,1.5-1,1.7
			c-2.2,0.5-3.8,2.5-3.8,4.8c0,2.2,1.5,4.2,3.7,4.8c0.7,0.2,1.2,1,1,1.7C41.6,28.4,41.1,28.8,40.5,28.8z"/>
	</g>
	<g>
		<path d="M2.6,28.8c-0.6,0-1.2-0.4-1.3-1c-0.2-0.7,0.2-1.5,1-1.7c2.2-0.6,3.7-2.5,3.7-4.8c0-2.3-1.6-4.3-3.8-4.8
			c-0.7-0.2-1.2-0.9-1-1.7c0.2-0.7,0.9-1.2,1.7-1c3.5,0.8,6,3.9,6,7.5c0,3.5-2.4,6.6-5.8,7.5C2.8,28.8,2.7,28.8,2.6,28.8z"/>
	</g>
	<g>
		<path d="M21.6,9c-3.6,0-6.7-2.5-7.5-6c-0.2-0.7,0.3-1.5,1-1.7c0.8-0.2,1.5,0.3,1.7,1c0.5,2.2,2.5,3.8,4.8,3.8
			c2.2,0,4.2-1.5,4.8-3.7c0.2-0.7,1-1.2,1.7-1c0.7,0.2,1.2,1,1,1.7C28.1,6.6,25.1,9,21.6,9z"/>
	</g>
	<g>
		<path d="M15.4,41.8c-0.1,0-0.2,0-0.3,0c-0.7-0.2-1.2-0.9-1-1.7c0.8-3.5,3.9-6,7.5-6c3.5,0,6.6,2.4,7.5,5.7c0.2,0.7-0.2,1.5-1,1.7
			c-0.7,0.2-1.5-0.2-1.7-1c-0.6-2.2-2.5-3.7-4.8-3.7c-2.3,0-4.3,1.6-4.8,3.8C16.6,41.4,16,41.8,15.4,41.8z"/>
	</g>
</g>
</svg>
