<?xml version="1.0" encoding="iso-8859-1"?>
<!-- Generator: Adobe Illustrator 22.0.1, SVG Export Plug-In . SVG Version: 6.00 Build 0)  -->
<svg version="1.1" id="Layer_1" xmlns="http://www.w3.org/2000/svg" xmlns:xlink="http://www.w3.org/1999/xlink" x="0px" y="0px"
	 width="48.2px" height="49.3px" viewBox="0 0 48.2 49.3" style="enable-background:new 0 0 48.2 49.3;" xml:space="preserve">
<g>
	<g>
		<rect x="5.3" y="26.8" style="fill:#ED1C24;" width="37.7" height="13"/>
		<path d="M43,41.3H5.3c-0.8,0-1.5-0.7-1.5-1.5v-13c0-0.8,0.7-1.5,1.5-1.5H43c0.8,0,1.5,0.7,1.5,1.5v13C44.5,40.7,43.8,41.3,43,41.3
			z M6.8,38.3h34.7v-10H6.8V38.3z"/>
	</g>
	<g>
		<line style="fill:#ED1C24;" x1="5" y1="40.3" x2="1.5" y2="47.8"/>
		<path d="M1.5,49.3c-0.2,0-0.4,0-0.6-0.1c-0.8-0.4-1.1-1.2-0.7-2l3.5-7.5c0.4-0.8,1.2-1.1,2-0.7c0.8,0.4,1.1,1.2,0.7,2l-3.5,7.5
			C2.6,49,2.1,49.3,1.5,49.3z"/>
	</g>
	<g>
		<line style="fill:#ED1C24;" x1="42.7" y1="40.3" x2="39.2" y2="47.8"/>
		<path d="M39.2,49.3c-0.2,0-0.4,0-0.6-0.1c-0.8-0.4-1.1-1.2-0.7-2l3.5-7.5c0.4-0.8,1.2-1.1,2-0.7c0.8,0.4,1.1,1.2,0.7,2l-3.5,7.5
			C40.3,49,39.7,49.3,39.2,49.3z"/>
	</g>
	<g>
		<line style="fill:#ED1C24;" x1="43.2" y1="40.3" x2="46.7" y2="47.8"/>
		<path d="M46.7,49.3c-0.6,0-1.1-0.3-1.4-0.9L41.8,41c-0.4-0.8,0-1.6,0.7-2c0.8-0.4,1.6,0,2,0.7l3.5,7.5c0.4,0.8,0,1.6-0.7,2
			C47.1,49.3,46.9,49.3,46.7,49.3z"/>
	</g>
	<g>
		<line style="fill:#ED1C24;" x1="5.5" y1="40.3" x2="9" y2="47.8"/>
		<path d="M9,49.3c-0.6,0-1.1-0.3-1.4-0.9L4.1,41c-0.4-0.8,0-1.6,0.7-2c0.8-0.4,1.6,0,2,0.7l3.5,7.5c0.4,0.8,0,1.6-0.7,2
			C9.4,49.3,9.2,49.3,9,49.3z"/>
	</g>
	<g>
		<defs>
			<rect id="SVGID_3_" x="6.8" y="28.3" width="34.7" height="10"/>
		</defs>
		<clipPath id="SVGID_2_">
			<use xlink:href="#SVGID_3_"  style="overflow:visible;"/>
		</clipPath>
		<g style="clip-path:url(#SVGID_2_);">
			<polygon style="fill:#FFFFFF;" points="45.4,39.9 38.8,39.9 29.9,26.2 36.6,26.2 			"/>
		</g>
		<g style="clip-path:url(#SVGID_2_);">
			<polygon style="fill:#FFFFFF;" points="32.4,39.9 25.8,39.9 16.9,26.2 23.6,26.2 			"/>
		</g>
		<g style="clip-path:url(#SVGID_2_);">
			<polygon style="fill:#FFFFFF;" points="19.4,39.9 12.8,39.9 3.9,26.2 10.6,26.2 			"/>
		</g>
	</g>
	<g>
		<polygon style="fill:#FFFFFF;" points="30.3,1.5 18,1.5 9.3,10.2 9.3,22.5 18,31.2 30.3,31.2 39,22.5 39,10.2 		"/>
		<path d="M30.3,32.7H18c-0.4,0-0.8-0.2-1.1-0.4l-8.7-8.7c-0.3-0.3-0.4-0.7-0.4-1.1V10.2c0-0.4,0.2-0.8,0.4-1.1L17,0.4
			C17.2,0.2,17.6,0,18,0h12.3c0.4,0,0.8,0.2,1.1,0.4l8.7,8.7c0.3,0.3,0.4,0.7,0.4,1.1v12.3c0,0.4-0.2,0.8-0.4,1.1l-8.7,8.7
			C31.1,32.5,30.7,32.7,30.3,32.7z M18.6,29.7h11l7.8-7.8v-11L29.7,3h-11l-7.8,7.8v11L18.6,29.7z"/>
	</g>
	<g>
		<polygon style="fill:#ED1C24;" points="33.3,12.6 27.9,12.6 27.9,7.2 20.5,7.2 20.5,12.6 15.1,12.6 15.1,20 20.5,20 20.5,25.5 
			27.9,25.5 27.9,20 33.3,20 		"/>
	</g>
</g>
</svg>
