<?xml version="1.0" encoding="iso-8859-1"?>
<!-- Generator: Adobe Illustrator 22.0.1, SVG Export Plug-In . SVG Version: 6.00 Build 0)  -->
<svg version="1.1" id="Layer_1" xmlns="http://www.w3.org/2000/svg" xmlns:xlink="http://www.w3.org/1999/xlink" x="0px" y="0px"
	 width="47.3px" height="50.5px" viewBox="0 0 47.3 50.5" style="enable-background:new 0 0 47.3 50.5;" xml:space="preserve">
<g>
	<g>
		<path style="fill:#6D6E71;" d="M22.4,49c0,0-18.1,0.7-20.7-14.9c-2.5-15.3,43-16.2,40.8-0.7C41.6,39.9,37.9,49,22.4,49z"/>
		<path d="M22.2,50.5c-2.4,0-19.4-0.6-21.9-16.1c-0.6-3.7,1-6.9,4.7-9.3c8.4-5.5,26-5.8,34.3-0.5c3.6,2.3,5.3,5.4,4.7,9.1
			c-1.6,11-9.1,16.9-21.6,16.9C22.4,50.5,22.3,50.5,22.2,50.5z M22.9,23.7c-6.1,0-12.4,1.3-16.2,3.8c-2.7,1.8-3.8,3.9-3.4,6.3
			c1,5.9,4.4,10,10.3,12.1c4.5,1.7,8.8,1.5,8.8,1.5c0,0,0,0,0.1,0c11,0,17.3-4.8,18.6-14.3c0.4-2.4-0.8-4.5-3.4-6.1
			C34.2,24.8,28.6,23.7,22.9,23.7z"/>
	</g>
	<g>
		<ellipse style="fill:#A7A9AC;" cx="22" cy="30.2" rx="20.5" ry="8.4"/>
		<path d="M22,40.1c-12.5,0-22-4.3-22-9.9c0-5.6,9.4-9.9,22-9.9s22,4.3,22,9.9C44,35.9,34.5,40.1,22,40.1z M22,23.3
			c-10.9,0-19,3.6-19,6.9c0,3.3,8.1,6.9,19,6.9s19-3.6,19-6.9C41,27,32.8,23.3,22,23.3z"/>
	</g>
	<ellipse cx="22" cy="29.8" rx="14.9" ry="4.7"/>
	<g>
		<path style="fill:#6D6E71;" d="M26.1,32.4c3.5,0.2,4.6-1.9,5.9-3.7c0.7-1,1.7-2,2.6-2.9c0.9-0.9,1.8-1.6,2.9-2.3l6.9-4.5
			c1.2-0.7,1.8-2.1,1.5-3.4c-0.5-2.2-3-3.1-4.7-2l-7.9,4.4c-0.6,0.3-1.2,0.6-1.8,0.9c-1.2,0.5-2.6,1-4,1.4c-1.3,0.4-2.8,0.4-4.1,1.2
			c-3.2,1.9-4,6.3-1.3,9.2C23,31.7,24.5,32.4,26.1,32.4z"/>
		<path d="M26.5,34c-0.2,0-0.3,0-0.5,0l0,0c-2-0.1-3.9-1-5.2-2.4c-1.5-1.7-2.2-4-1.9-6.2c0.3-2.2,1.6-4.2,3.6-5.4
			c1.1-0.7,2.2-0.9,3.2-1c0.4-0.1,0.9-0.2,1.3-0.3c1.3-0.4,2.7-0.9,3.8-1.3c0.6-0.2,1.1-0.5,1.6-0.8l7.9-4.4
			c1.2-0.7,2.8-0.9,4.2-0.3c1.4,0.6,2.4,1.8,2.7,3.3c0.5,1.9-0.4,4-2.2,5l-6.8,4.5c-1,0.6-1.9,1.3-2.6,2.1c-0.7,0.7-1.7,1.7-2.4,2.7
			c-0.1,0.2-0.3,0.3-0.4,0.5C31.6,31.8,30.1,34,26.5,34z M42.7,14.6c-0.3,0-0.6,0.1-0.9,0.2l-7.9,4.4c-0.6,0.3-1.3,0.7-1.9,0.9
			c-1.2,0.5-2.7,1-4.1,1.4c-0.5,0.2-1,0.2-1.5,0.3c-0.9,0.2-1.6,0.3-2.2,0.7c-1.2,0.7-1.9,1.9-2.1,3.2c-0.2,1.4,0.2,2.7,1.2,3.7
			c0.7,0.8,1.9,1.3,3.1,1.4l0,0c2.3,0.1,3.1-1,4.2-2.5c0.1-0.2,0.3-0.4,0.4-0.6c0.8-1.1,1.9-2.3,2.7-3.1c0.9-0.9,2-1.8,3.1-2.5
			l6.9-4.5c0.7-0.4,1-1.2,0.9-1.8c-0.2-0.8-0.7-1.1-1-1.2C43.1,14.7,42.9,14.6,42.7,14.6z"/>
	</g>
	<g>
		<g>
			<path style="fill:#00A651;" d="M24.3,14.6c-6.9,4.1-13.2-0.1-13.2-0.1s-0.8-7.4,6.3-11.6C22.8-0.3,30.6,3,30.6,3
				S29.7,11.4,24.3,14.6z"/>
			<path d="M17.9,17.9c-4.3,0-7.5-2-7.6-2.2c-0.4-0.2-0.6-0.6-0.7-1.1c0-0.3-0.9-8.4,7.1-13.1c6-3.5,14.2-0.1,14.5,0
				c0.6,0.3,1,0.9,0.9,1.5c0,0.4-1.1,9.2-7.1,12.7l0,0C22.5,17.4,20.1,17.9,17.9,17.9z M12.6,13.6c1.6,0.8,6.1,2.6,11-0.3
				c3.6-2.1,4.9-7,5.4-9.3c-2.2-0.7-7.2-1.9-10.8,0.2C13.2,7.1,12.6,11.8,12.6,13.6z"/>
		</g>
		<g>
			<line style="fill:#00A651;" x1="30.6" y1="3" x2="9.5" y2="15.4"/>
			<path d="M9.5,16.9c-0.5,0-1-0.3-1.3-0.7c-0.4-0.7-0.2-1.6,0.5-2.1L29.8,1.7c0.7-0.4,1.6-0.2,2.1,0.5c0.4,0.7,0.2,1.6-0.5,2.1
				L10.3,16.7C10.1,16.8,9.8,16.9,9.5,16.9z"/>
		</g>
	</g>
</g>
</svg>
