<?xml version="1.0" encoding="iso-8859-1"?>
<!-- Generator: Adobe Illustrator 22.0.1, SVG Export Plug-In . SVG Version: 6.00 Build 0)  -->
<svg version="1.1" id="Layer_1" xmlns="http://www.w3.org/2000/svg" xmlns:xlink="http://www.w3.org/1999/xlink" x="0px" y="0px"
	 width="44px" height="40.2px" viewBox="0 0 44 40.2" style="enable-background:new 0 0 44 40.2;" xml:space="preserve">
<g>
	<g>
		<g>
			<polygon style="fill:#27AAE1;" points="25.8,5.2 1.5,5.2 1.5,14.9 20.1,14.9 			"/>
			<path d="M20.1,16.4H1.5c-0.8,0-1.5-0.7-1.5-1.5V5.2c0-0.8,0.7-1.5,1.5-1.5h24.3c0.5,0,1,0.3,1.3,0.8s0.3,1,0,1.5l-5.6,9.7
				C21.2,16.1,20.7,16.4,20.1,16.4z M3,13.4h16.3l3.9-6.7H3V13.4z"/>
		</g>
		<g>
			<polygon style="fill:#27AAE1;" points="35.6,6.2 30.1,15.9 42.5,15.9 42.5,6.2 			"/>
			<path d="M42.5,17.4H30.1c-0.5,0-1-0.3-1.3-0.7s-0.3-1,0-1.5l5.6-9.7c0.3-0.5,0.8-0.8,1.3-0.8h6.9c0.8,0,1.5,0.7,1.5,1.5v9.7
				C44,16.8,43.3,17.4,42.5,17.4z M32.7,14.4H41V7.7h-4.5L32.7,14.4z"/>
		</g>
	</g>
	<g>
		<g>
			<polygon style="fill:#00A651;" points="20.4,14.4 1.5,14.4 1.5,24.1 14.8,24.1 			"/>
			<path d="M14.8,25.6H1.5c-0.8,0-1.5-0.7-1.5-1.5v-9.7c0-0.8,0.7-1.5,1.5-1.5h18.9c0.5,0,1,0.3,1.3,0.8s0.3,1,0,1.5l-5.6,9.7
				C15.8,25.3,15.3,25.6,14.8,25.6z M3,22.6h10.9l3.9-6.7H3V22.6z"/>
		</g>
		<g>
			<polygon style="fill:#00A651;" points="30.4,15.4 24.8,25.1 42.5,25.1 42.5,15.4 			"/>
			<path d="M42.5,26.6H24.8c-0.5,0-1-0.3-1.3-0.7s-0.3-1,0-1.5l5.6-9.7c0.3-0.5,0.8-0.8,1.3-0.8h12.1c0.8,0,1.5,0.7,1.5,1.5v9.7
				C44,25.9,43.3,26.6,42.5,26.6z M27.4,23.6H41v-6.7h-9.7L27.4,23.6z"/>
		</g>
	</g>
	<g>
		<g>
			<polygon style="fill:#ED1C24;" points="25.1,24.5 19.6,34.2 42.5,34.2 42.5,24.5 			"/>
			<path d="M42.5,35.7H19.6c-0.5,0-1-0.3-1.3-0.7s-0.3-1,0-1.5l5.6-9.7c0.3-0.5,0.8-0.8,1.3-0.8h17.4c0.8,0,1.5,0.7,1.5,1.5v9.7
				C44,35.1,43.3,35.7,42.5,35.7z M22.2,32.7H41V26H26L22.2,32.7z"/>
		</g>
		<g>
			<polygon style="fill:#ED1C24;" points="15.1,23.5 1.5,23.5 1.5,33.2 9.5,33.2 			"/>
			<path d="M9.5,34.7h-8c-0.8,0-1.5-0.7-1.5-1.5v-9.7C0,22.7,0.7,22,1.5,22h13.6c0.5,0,1,0.3,1.3,0.8s0.3,1,0,1.5L10.8,34
				C10.5,34.4,10,34.7,9.5,34.7z M3,31.7h5.6l3.9-6.7H3V31.7z"/>
		</g>
	</g>
	<g>
		<path style="fill:#ED1C24;" d="M11.7,40.2c-0.3,0-0.5-0.1-0.7-0.2c-0.7-0.4-1-1.3-0.6-2L31.7,0.8c0.4-0.7,1.3-1,2-0.6
			c0.7,0.4,1,1.3,0.6,2L13,39.4C12.7,39.9,12.2,40.2,11.7,40.2z"/>
	</g>
</g>
</svg>
