<?xml version="1.0" encoding="iso-8859-1"?>
<!-- Generator: Adobe Illustrator 22.0.1, SVG Export Plug-In . SVG Version: 6.00 Build 0)  -->
<svg version="1.1" id="Layer_1" xmlns="http://www.w3.org/2000/svg" xmlns:xlink="http://www.w3.org/1999/xlink" x="0px" y="0px"
	 width="40px" height="53.6px" viewBox="0 0 40 53.6" style="enable-background:new 0 0 40 53.6;" xml:space="preserve">
<g>
	<g>
		<g>
			<path style="fill:#C49A6C;" d="M5.1,46.2c2.8,2.5,9.3,4.8,13,5.3c6,0.9,15.1,2.1,19.6-7.9C42,33.9,28,31.5,28,31.5
				s-4.2-1-7.3-1.9c-0.9-0.3-1.9-0.1-2.6,0.5c-0.6,0.6-0.8,2.4,0,4.1c0.6,1.4,7.5,2.6,7.5,2.6s-6.8-0.7-11.1-3
				c-1.3-0.7-4.5-2.5-5.1-3c-0.7-0.5-1.5-0.6-2.3-0.3c-1.4,0.6-3.5,2.3-4.9,5.7C0.8,39.7,1.5,43,5.1,46.2z"/>
			<path d="M24.4,53.6c-2.3,0-4.6-0.3-6.4-0.6c-4.1-0.6-10.8-3.1-13.8-5.7c-4-3.5-5.1-7.4-3.4-11.7c1.9-4.7,4.9-6.2,5.7-6.6
				c1.2-0.5,2.6-0.3,3.7,0.4c0.6,0.4,3.7,2.2,5,2.9c0.3,0.2,0.6,0.3,0.9,0.4c-0.2-1.6,0.1-3,0.9-3.8c1-1,2.6-1.3,4.1-0.9
				c3.1,0.9,7.2,1.9,7.3,1.9c0.2,0,8.1,1.5,10.8,6.5c1.2,2.3,1.2,4.9-0.1,7.7C35.6,51.9,29.7,53.6,24.4,53.6z M8,31.8
				c-0.1,0-0.2,0-0.3,0.1C7.2,32,5,33,3.6,36.7c-1.2,3.1-0.4,5.7,2.6,8.3l0,0c2.5,2.2,8.6,4.4,12.2,4.9c5.9,0.8,14,2,18-7
				c0.9-2,0.9-3.6,0.2-5.1c-1.7-3.1-6.9-4.7-8.8-5c-0.1,0-4.3-1.1-7.5-2c-0.4-0.1-0.9,0-1.2,0.2c-0.1,0.2-0.2,1.1,0.3,2.2
				c0.7,0.5,3.6,1.4,6.5,1.9c0.8,0.1,1.3,0.9,1.2,1.7c-0.1,0.8-0.8,1.4-1.6,1.3c-0.3,0-7.1-0.8-11.6-3.2c-1.2-0.6-4.5-2.6-5.3-3.1
				C8.3,31.8,8.2,31.8,8,31.8z"/>
		</g>
		<g>
			<path style="fill:#C49A6C;" d="M5.1,33.6c0,0,5.2,5.2,13.1,6.9"/>
			<path d="M18.2,42c-0.1,0-0.2,0-0.3,0C9.7,40.2,4.3,34.9,4,34.6c-0.6-0.6-0.6-1.5,0-2.1c0.6-0.6,1.5-0.6,2.1,0l0,0
				c0,0,5,4.9,12.4,6.5c0.8,0.2,1.3,1,1.2,1.8C19.5,41.5,18.9,42,18.2,42z"/>
		</g>
		<g>
			<path style="fill:#C49A6C;" d="M2.3,37.9c0,0,5.8,5.8,13.7,7.4"/>
			<path d="M16,46.9c-0.1,0-0.2,0-0.3,0C7.5,45.1,1.5,39.2,1.2,39c-0.6-0.6-0.6-1.5,0-2.1c0.6-0.6,1.5-0.6,2.1,0
				c0.1,0.1,5.6,5.5,13,7c0.8,0.2,1.3,1,1.2,1.8C17.3,46.4,16.7,46.9,16,46.9z"/>
		</g>
	</g>
	<g>
		<path d="M19.6,30.5c-0.8,0-1.5-0.7-1.5-1.5V1.8c0-0.8,0.7-1.5,1.5-1.5s1.5,0.7,1.5,1.5V29C21.1,29.8,20.5,30.5,19.6,30.5z"/>
	</g>
	<g>
		<path style="fill:#00A651;" d="M19.4,23.1c0,0,0.7-4.7-3.1-7.2C12.2,13.2,7.1,14,7.1,14s-0.3,5.2,4.1,8.4S19.4,23.1,19.4,23.1z"/>
		<path d="M15.8,25.6c-1.6,0-3.5-0.5-5.5-1.9c-5-3.7-4.7-9.5-4.7-9.7c0-0.7,0.6-1.3,1.3-1.4c0.2,0,5.7-0.9,10.3,2.1
			c4.6,3,3.8,8.4,3.8,8.7c-0.1,0.4-0.3,0.8-0.6,1C20.2,24.4,18.4,25.6,15.8,25.6z M8.6,15.4c0.2,1.5,0.9,4,3.4,5.8
			c2.6,1.9,4.9,1.3,5.9,0.9c0-1.2-0.3-3.6-2.5-5C13.1,15.5,10.3,15.3,8.6,15.4z"/>
	</g>
	<g>
		<path style="fill:#00A651;" d="M19.4,10.7c0,0,0.7-4.7-3.1-7.2c-4.1-2.7-9.2-1.9-9.2-1.9s-0.3,5.2,4.1,8.4S19.4,10.7,19.4,10.7z"
			/>
		<path d="M15.8,13.2c-1.6,0-3.5-0.5-5.5-1.9c-5-3.7-4.7-9.5-4.7-9.7c0-0.7,0.6-1.3,1.3-1.4c0.2,0,5.7-0.9,10.3,2.1
			c4.6,3,3.8,8.4,3.8,8.7c-0.1,0.4-0.3,0.8-0.6,1C20.2,12,18.4,13.2,15.8,13.2z M8.6,3c0.2,1.5,0.9,4,3.4,5.8
			c2.6,1.9,4.9,1.3,5.9,0.9c0-1.2-0.3-3.6-2.5-5C13.1,3.2,10.3,3,8.6,3z"/>
	</g>
	<g>
		<path style="fill:#00A651;" d="M19.9,23.2c0,0-0.7-4.7,3.1-7.2c4.1-2.7,9.2-1.9,9.2-1.9s0.3,5.2-4.1,8.4S19.9,23.2,19.9,23.2z"/>
		<path d="M23.5,25.7c-2.6,0-4.4-1.2-4.5-1.3c-0.3-0.2-0.6-0.6-0.6-1c0-0.2-0.8-5.7,3.8-8.7c4.6-3,10.1-2.1,10.3-2.1
			c0.7,0.1,1.2,0.7,1.3,1.4c0,0.2,0.3,6-4.7,9.7C27,25.2,25.1,25.7,23.5,25.7z M21.3,22.3c1.1,0.4,3.3,1,5.9-0.9
			c2.5-1.8,3.2-4.3,3.4-5.8c-1.6,0-4.5,0.2-6.8,1.7C21.6,18.7,21.3,21.1,21.3,22.3z"/>
	</g>
	<g>
		<path style="fill:#00A651;" d="M19.9,10.8c0,0-0.7-4.7,3.1-7.2c4.1-2.7,9.2-1.9,9.2-1.9s0.3,5.2-4.1,8.4S19.9,10.8,19.9,10.8z"/>
		<path d="M23.5,13.3c-2.6,0-4.4-1.2-4.5-1.3c-0.3-0.2-0.6-0.6-0.6-1c0-0.2-0.8-5.7,3.8-8.7c4.6-3,10.1-2.1,10.3-2.1
			c0.7,0.1,1.2,0.7,1.3,1.4c0,0.2,0.3,6-4.7,9.7C27,12.9,25.1,13.3,23.5,13.3z M21.3,9.9c1.1,0.4,3.3,1,5.9-0.9
			c2.5-1.8,3.2-4.3,3.4-5.8c-1.6,0-4.5,0.2-6.8,1.7C21.6,6.3,21.3,8.7,21.3,9.9z"/>
	</g>
</g>
</svg>
