<?xml version="1.0" encoding="iso-8859-1"?>
<!-- Generator: Adobe Illustrator 22.0.1, SVG Export Plug-In . SVG Version: 6.00 Build 0)  -->
<svg version="1.1" id="Layer_1" xmlns="http://www.w3.org/2000/svg" xmlns:xlink="http://www.w3.org/1999/xlink" x="0px" y="0px"
	 width="55.7px" height="35.5px" viewBox="0 0 55.7 35.5" style="enable-background:new 0 0 55.7 35.5;" xml:space="preserve">
<g>
	<g>
		<path style="fill:#C49A6C;" d="M45.2,21.6l-3.2-3.1l-1.4-0.9l-0.8-2l-4.9-2.9l-11.3-3c-3.5,0.3-11.4-4.3-11.4-4.3L7,15.4
			l10.5,11.1l8.8,4.1l5.5,2.4c1.1,0.8,2.7,0.6,3.5-0.5l0.4-0.5c0.8-1.1,0.6-2.7-0.5-3.5L33,26.6l0.5,0.4l3.7,2.9
			c1.1,0.8,2.7,0.6,3.5-0.5l0.4-0.5c0.8-1.1,0.6-2.7-0.5-3.5l-3-2.3l4.2,3.2c1.1,0.8,2.7,0.6,3.5-0.5l0.4-0.5
			C46.5,24,46.3,22.5,45.2,21.6z"/>
		<path d="M33.3,35c-0.8,0-1.6-0.2-2.3-0.7L25.6,32l-8.8-4.2c-0.2-0.1-0.3-0.2-0.5-0.3L5.9,16.4c-0.4-0.5-0.5-1.2-0.2-1.7l5.2-10
			c0.2-0.4,0.5-0.6,0.9-0.7c0.4-0.1,0.8-0.1,1.2,0.1c2.9,1.7,8.4,4.3,10.6,4.1c0.2,0,0.3,0,0.5,0l11.3,3c0.1,0,0.3,0.1,0.4,0.2
			l4.9,2.9c0.3,0.2,0.5,0.4,0.6,0.7l0.7,1.6l1,0.7c0.1,0,0.1,0.1,0.2,0.1l3.2,3c0.8,0.6,1.3,1.6,1.5,2.6c0.2,1.1-0.1,2.1-0.8,3
			l-0.4,0.5c-0.6,0.9-1.6,1.4-2.7,1.6c-0.3,0-0.6,0.1-0.8,0c-0.1,0.6-0.4,1.1-0.7,1.6l-0.4,0.5c-1,1.4-2.8,1.9-4.4,1.4
			c-0.1,0.4-0.3,0.8-0.6,1.1l-0.4,0.5C35.7,34.4,34.5,35,33.3,35z M18.3,25.2l8.5,4l5.5,2.4c0.1,0,0.2,0.1,0.3,0.2
			c0.4,0.3,1.1,0.2,1.4-0.2l0.4-0.5c0.3-0.5,0.2-1.1-0.2-1.4L32,27.8c-0.6-0.5-0.7-1.4-0.2-2.1c0.5-0.6,1.4-0.8,2.1-0.3l4.2,3.3
			c0.2,0.1,0.5,0.2,0.7,0.2c0.3,0,0.5-0.2,0.7-0.4l0.4-0.5c0.3-0.4,0.2-1.1-0.2-1.4l-3-2.3c-0.7-0.5-0.8-1.4-0.3-2.1
			c0.5-0.7,1.4-0.8,2.1-0.3l4.2,3.2c0.2,0.2,0.5,0.2,0.8,0.2c0.3,0,0.5-0.2,0.7-0.4l0.4-0.5c0.2-0.2,0.2-0.5,0.2-0.8
			c0-0.3-0.2-0.5-0.4-0.7c0,0-0.1-0.1-0.1-0.1l-3.2-3l-1.3-0.9c-0.2-0.2-0.4-0.4-0.5-0.6l-0.6-1.5l-4.3-2.6l-10.8-2.9
			c0,0-0.1,0-0.1,0c-3.1,0-8.1-2.4-10.5-3.7l-4,7.7L18.3,25.2z"/>
	</g>
	<g>
		<path style="fill:#F15A29;" d="M46.2,2.5L39.6,7c0,0-5.6-2.9-12.2-1.2s-8.8,6-7.8,8.8s9.7-2.9,9.7-2.9s10.6,4.4,14.6,8.6
			c0,0,6.1-2.6,10.5-9.1L46.2,2.5z"/>
		<path d="M43.8,21.7c-0.4,0-0.7-0.1-1-0.4c-3.2-3.3-11.1-6.9-13.4-7.9c-2.2,1.4-7.2,4.2-9.6,3.3c-0.7-0.3-1.3-0.8-1.5-1.5
			c-0.5-1.5-0.3-3.3,0.5-4.9c1.4-2.6,4.3-4.6,8.2-5.7c5.7-1.5,10.6,0.1,12.4,0.9l5.9-4.1c0.6-0.4,1.3-0.3,1.8,0.2l8.2,8.7
			c0.4,0.5,0.5,1.2,0.1,1.7c-4.6,6.8-10.8,9.5-11.1,9.6C44.2,21.6,44,21.7,43.8,21.7z M29.3,10.3c0.2,0,0.4,0,0.5,0.1
			c0.4,0.2,9.8,4.1,14.3,8.2c1.6-0.9,5.4-3.2,8.4-7.3l-6.6-7l-5.6,3.8c-0.4,0.3-1,0.3-1.4,0.1c0,0-5.3-2.7-11.2-1.1
			c-4.3,1.1-5.9,3.2-6.5,4.3c-0.5,0.9-0.6,1.8-0.4,2.6c1.1,0.1,4.6-1.5,7.7-3.5C28.7,10.4,29,10.3,29.3,10.3z"/>
	</g>
	<g>
		<path style="fill:#F15A29;" d="M24,33.7l-0.6-0.3c-1.2-0.7-1.6-2.3-0.8-3.5l1.3-2.1c0.7-1.2,2.3-1.6,3.5-0.8l0.6,0.3
			c1.2,0.7,1.6,2.3,0.8,3.5l-1.3,2.1C26.7,34.1,25.2,34.4,24,33.7z"/>
		<path d="M25.3,35.5c-0.7,0-1.4-0.2-2-0.6l0,0l-0.6-0.3c-0.9-0.5-1.5-1.4-1.8-2.4c-0.2-1-0.1-2.1,0.5-3l1.3-2.1
			c1.1-1.8,3.5-2.4,5.4-1.3l0.6,0.3c1.8,1.1,2.4,3.5,1.3,5.4l-1.3,2.1C27.9,34.8,26.6,35.5,25.3,35.5z M24.7,32.5
			c0.5,0.3,1.2,0.2,1.6-0.4l1.3-2.1c0.3-0.5,0.2-1.2-0.4-1.6l-0.6-0.3c-0.5-0.3-1.2-0.2-1.6,0.4l-1.3,2.1c-0.2,0.3-0.2,0.6-0.1,0.9
			c0.1,0.3,0.3,0.5,0.5,0.7L24.7,32.5z"/>
	</g>
	<g>
		<path style="fill:#F15A29;" d="M18.9,30.9l-0.6-0.3c-1.2-0.7-1.6-2.3-0.8-3.5l2.3-3.6c0.7-1.2,2.3-1.6,3.5-0.8l0.6,0.3
			c1.2,0.7,1.6,2.3,0.8,3.5l-2.3,3.6C21.7,31.3,20.1,31.7,18.9,30.9z"/>
		<path d="M20.2,32.7c-0.7,0-1.4-0.2-2-0.6h0l-0.6-0.3c-1.8-1.1-2.4-3.5-1.3-5.4l2.3-3.6c0.5-0.9,1.4-1.5,2.4-1.8
			c1-0.2,2.1-0.1,3,0.5l0.6,0.3c0.9,0.5,1.5,1.4,1.8,2.4c0.2,1,0.1,2.1-0.5,3l-2.3,3.6C22.8,32,21.6,32.7,20.2,32.7z M19.7,29.8
			c0.5,0.3,1.2,0.2,1.6-0.4l2.3-3.6c0.1-0.2,0.2-0.5,0.1-0.8c-0.1-0.3-0.3-0.5-0.5-0.7l-0.6-0.3c-0.3-0.2-0.6-0.2-0.9-0.1
			c-0.3,0.1-0.5,0.3-0.7,0.5l-2.3,3.6c-0.3,0.5-0.1,1.2,0.4,1.5L19.7,29.8z"/>
	</g>
	<g>
		<path style="fill:#F15A29;" d="M14.4,27.4L13.8,27c-1.2-0.7-1.6-2.3-0.8-3.5l1.7-2.8c0.7-1.2,2.3-1.6,3.5-0.8l0.6,0.3
			c1.2,0.7,1.6,2.3,0.8,3.5l-1.7,2.8C17.2,27.7,15.6,28.1,14.4,27.4z"/>
		<path d="M15.7,29.1c-0.7,0-1.4-0.2-2-0.6l0,0l-0.6-0.3c-1.8-1.1-2.4-3.5-1.3-5.4l1.7-2.8c1.1-1.9,3.5-2.4,5.4-1.3l0.6,0.3
			c1.8,1.1,2.4,3.5,1.3,5.4l-1.7,2.8C18.3,28.4,17,29.1,15.7,29.1z M15.1,26.2c0.5,0.3,1.2,0.2,1.6-0.4l1.7-2.8
			c0.3-0.5,0.2-1.2-0.4-1.6l-0.6-0.3c-0.5-0.3-1.2-0.2-1.6,0.4l-1.7,2.8c-0.3,0.5-0.2,1.2,0.4,1.6L15.1,26.2z"/>
	</g>
	<g>
		<polygon style="fill:#C49A6C;" points="16.5,5.4 8.7,19.9 1.5,16.2 9.3,1.5 		"/>
		<path d="M8.7,21.4c-0.2,0-0.5-0.1-0.7-0.2l-7.2-3.7c-0.4-0.2-0.6-0.5-0.7-0.9c-0.1-0.4-0.1-0.8,0.1-1.2L8,0.8
			c0.2-0.4,0.5-0.6,0.9-0.7C9.3-0.1,9.7,0,10,0.2l7.2,3.9c0.7,0.4,1,1.3,0.6,2l-7.7,14.5C9.8,21.1,9.3,21.4,8.7,21.4z M3.5,15.6
			l4.6,2.3L14.5,6L9.9,3.5L3.5,15.6z"/>
	</g>
</g>
</svg>
