<?xml version="1.0" encoding="iso-8859-1"?>
<!-- Generator: Adobe Illustrator 22.0.1, SVG Export Plug-In . SVG Version: 6.00 Build 0)  -->
<svg version="1.1" id="Layer_1" xmlns="http://www.w3.org/2000/svg" xmlns:xlink="http://www.w3.org/1999/xlink" x="0px" y="0px"
	 width="62px" height="39.2px" viewBox="0 0 62 39.2" style="enable-background:new 0 0 62 39.2;" xml:space="preserve">
<g>
	<g>
		<polygon style="fill:#F7941D;" points="13.1,14.5 13.1,32.4 1.4,32.4 7.9,26.5 		"/>
		<path d="M13.1,33.8H1.4c-0.6,0-1.1-0.4-1.3-0.9S0,31.8,0.5,31.4l6.3-5.7l5.1-11.8c0.3-0.6,0.9-0.9,1.6-0.8
			c0.6,0.1,1.1,0.7,1.1,1.4v17.9C14.5,33.2,13.9,33.8,13.1,33.8z M5,31h6.7v-9.8l-2.6,5.9c-0.1,0.2-0.2,0.3-0.3,0.5L5,31z"/>
	</g>
	<g>
		<rect x="14.2" y="23.2" width="4.8" height="3"/>
		<path d="M18.9,27.6h-4.8c-0.8,0-1.4-0.6-1.4-1.4v-3c0-0.8,0.6-1.4,1.4-1.4h4.8c0.8,0,1.4,0.6,1.4,1.4v3
			C20.3,27,19.7,27.6,18.9,27.6z M15.6,24.9h2v-0.3h-2V24.9z"/>
	</g>
	<g>
		<path d="M38.5,2.8h-7.4c-0.8,0-1.4-0.6-1.4-1.4S30.3,0,31.1,0h7.4c0.8,0,1.4,0.6,1.4,1.4S39.3,2.8,38.5,2.8z"/>
	</g>
	<g>
		<path style="fill:#F7941D;" d="M50.6,13.1V1.6H36.2v11.5H22l-3,3.2v4.1v8.5v0.7h39.4v-0.7v-6.9l2.3-1.4v-7.5H50.6z M40.9,6.2h4.8
			v6.7h-4.8V6.2z"/>
		<path d="M58.4,31H18.9c-0.8,0-1.4-0.6-1.4-1.4V16.3c0-0.4,0.1-0.7,0.4-1l3-3.2c0.3-0.3,0.6-0.4,1-0.4h12.9V1.6
			c0-0.8,0.6-1.4,1.4-1.4h14.4c0.8,0,1.4,0.6,1.4,1.4v10.2h8.7c0.8,0,1.4,0.6,1.4,1.4v7.5c0,0.5-0.2,0.9-0.7,1.2l-1.6,1v6.8
			C59.7,30.4,59.1,31,58.4,31z M20.3,28.2H57v-6.1c0-0.5,0.2-0.9,0.7-1.2l1.6-1v-5.4h-8.7c-0.8,0-1.4-0.6-1.4-1.4V3H37.6v10.2
			c0,0.8-0.6,1.4-1.4,1.4H22.6l-2.3,2.4V28.2z M45.7,14.2h-4.8c-0.8,0-1.4-0.6-1.4-1.4V6.2c0-0.8,0.6-1.4,1.4-1.4h4.8
			c0.8,0,1.4,0.6,1.4,1.4v6.7C47.1,13.6,46.5,14.2,45.7,14.2z M42.3,11.4h2V7.5h-2V11.4z"/>
	</g>
	<g>
		<circle style="fill:#F7941D;" cx="47.9" cy="30.5" r="7.4"/>
		<path d="M47.9,39.2c-4.8,0-8.7-3.9-8.7-8.7s3.9-8.7,8.7-8.7c4.8,0,8.7,3.9,8.7,8.7S52.7,39.2,47.9,39.2z M47.9,24.5
			c-3.3,0-6,2.7-6,6s2.7,6,6,6s6-2.7,6-6S51.2,24.5,47.9,24.5z"/>
	</g>
	<g>
		<circle style="fill:#F7941D;" cx="29.2" cy="30.5" r="7.4"/>
		<path d="M29.2,39.2c-4.8,0-8.7-3.9-8.7-8.7s3.9-8.7,8.7-8.7s8.7,3.9,8.7,8.7S34,39.2,29.2,39.2z M29.2,24.5c-3.3,0-6,2.7-6,6
			s2.7,6,6,6s6-2.7,6-6S32.5,24.5,29.2,24.5z"/>
	</g>
	<g>
		<circle style="fill:#F7941D;" cx="47.9" cy="30.5" r="3.9"/>
		<path d="M47.9,35.8c-2.9,0-5.3-2.4-5.3-5.3s2.4-5.3,5.3-5.3c2.9,0,5.3,2.4,5.3,5.3S50.8,35.8,47.9,35.8z M47.9,27.9
			c-1.4,0-2.6,1.1-2.6,2.6s1.1,2.6,2.6,2.6c1.4,0,2.5-1.1,2.5-2.6S49.3,27.9,47.9,27.9z"/>
	</g>
	<g>
		<circle style="fill:#F7941D;" cx="29.2" cy="30.5" r="3.9"/>
		<path d="M29.2,35.8c-2.9,0-5.3-2.4-5.3-5.3s2.4-5.3,5.3-5.3s5.3,2.4,5.3,5.3S32.1,35.8,29.2,35.8z M29.2,27.9
			c-1.4,0-2.6,1.1-2.6,2.6s1.1,2.6,2.6,2.6s2.6-1.1,2.6-2.6S30.6,27.9,29.2,27.9z"/>
	</g>
</g>
</svg>
